<svg version="1.1" id="Ebene_1" xmlns="http://www.w3.org/2000/svg" x="0" y="0" viewBox="0 0 133 38" xml:space="preserve"><style>.st0,.st2{fill:#fff}.st2{display:inline}</style><g id="badge_appstore_de"><g transform="translate(-1 -1)" id="Group-2"><path id="Shape" d="M134 35.3c0 2.1-1.7 3.8-3.8 3.8H4.7c-2.1 0-3.8-1.7-3.8-3.8V4.7C.9 2.6 2.6.9 4.7.9h125.5c2.1 0 3.8 1.7 3.8 3.8v30.6z"/><g id="Group" transform="translate(12 6)"><path id="Shape_1_" class="st0" d="M18.1 13.8c0-3.2 2.6-4.8 2.8-4.9-1.5-2.2-3.9-2.5-4.7-2.5-2-.2-3.9 1.2-4.9 1.2-1 0-2.6-1.2-4.2-1.1C5 6.5 3 7.7 1.9 9.6c-2.3 3.9-.6 9.7 1.6 12.9 1.1 1.6 2.4 3.3 4 3.2 1.6-.1 2.2-1 4.2-1 1.9 0 2.5 1 4.2 1 1.7 0 2.8-1.6 3.9-3.1 1.3-1.8 1.8-3.5 1.8-3.6-.1-.1-3.4-1.4-3.5-5.2z"/><path id="Shape_2_" class="st0" d="M14.9 4.3c.9-1.1 1.5-2.6 1.3-4.1-1.3.1-2.8.9-3.8 1.9-.8.9-1.5 2.5-1.3 3.9 1.5.2 2.9-.6 3.8-1.7z"/></g><g id="Group_1_" transform="translate(42 17)"><path id="Shape_3_" class="st0" d="M11.7 14.5H9.4l-1.2-3.9H3.8l-1.2 3.9H.4L4.7 1.2h2.6l4.4 13.3zM7.8 9L6.7 5.5C6.5 5.1 6.3 4.3 6 3c-.2.5-.4 1.4-.7 2.5L4.2 9h3.6z"/><path id="Shape_4_" class="st0" d="M22.7 9.6c0 1.6-.4 2.9-1.3 3.9-.8.8-1.8 1.3-2.9 1.3-1.3 0-2.2-.5-2.7-1.4v5.1h-2.1V8.1c0-1 0-2.1-.1-3.2h1.9l.1 1.5c.7-1.1 1.8-1.7 3.2-1.7 1.1 0 2.1.4 2.8 1.3s1.1 2.1 1.1 3.6zm-2.2.1c0-.9-.2-1.7-.6-2.3-.5-.6-1.1-.9-1.9-.9-.5 0-1 .2-1.4.5-.4.3-.7.8-.8 1.4-.1.3-.1.5-.1.7v1.6c0 .7.2 1.3.6 1.8.4.5 1 .7 1.7.7.8 0 1.4-.3 1.9-.9.4-.8.6-1.6.6-2.6z"/><path id="Shape_5_" class="st0" d="M33.7 9.6c0 1.6-.4 2.9-1.3 3.9-.8.8-1.8 1.3-2.9 1.3-1.3 0-2.2-.5-2.7-1.4v5.1h-2.1V8.1c0-1 0-2.1-.1-3.2h1.9l.1 1.5c.7-1.1 1.8-1.7 3.2-1.7 1.1 0 2.1.4 2.8 1.3.8.9 1.1 2.1 1.1 3.6zm-2.1.1c0-.9-.2-1.7-.6-2.3-.5-.6-1.1-.9-1.9-.9-.5 0-1 .2-1.4.5-.4.3-.7.8-.8 1.4-.1.3-.1.5-.1.7v1.6c0 .7.2 1.3.6 1.8.4.5 1 .7 1.7.7.8 0 1.4-.3 1.9-.9.3-.8.6-1.6.6-2.6z"/><path id="Shape_6_" class="st0" d="M46.1 10.8c0 1.1-.4 2.1-1.2 2.8-.9.8-2.1 1.2-3.6 1.2-1.4 0-2.6-.3-3.4-.8l.5-1.8c.9.6 2 .9 3.1.9.8 0 1.4-.2 1.9-.5.4-.4.7-.8.7-1.5 0-.5-.2-1-.6-1.4-.4-.4-1-.7-1.8-1-2.3-.9-3.5-2.1-3.5-3.8 0-1.1.4-2 1.2-2.7.8-.7 1.9-1 3.3-1 1.2 0 2.2.2 3 .6L45 3.4c-.8-.4-1.6-.6-2.5-.6-.8 0-1.3.2-1.8.6-.4.3-.5.7-.5 1.2s.2 1 .6 1.3c.4.3 1 .7 1.9 1 1.1.5 2 1 2.5 1.6.6.6.9 1.4.9 2.3z"/><path id="Shape_7_" class="st0" d="M53.1 6.5h-2.4v4.7c0 1.2.4 1.8 1.2 1.8.4 0 .7 0 .9-.1l.1 1.6c-.4.2-1 .2-1.7.2-.8 0-1.5-.3-2-.8s-.7-1.4-.7-2.6V6.5h-1.4V4.9h1.4V3.1l2.1-.6v2.4H53v1.6h.1z"/><path id="Shape_8_" class="st0" d="M63.7 9.6c0 1.5-.4 2.7-1.3 3.6-.9 1-2.1 1.5-3.5 1.5s-2.5-.5-3.4-1.4c-.8-.9-1.3-2.1-1.3-3.5 0-1.5.4-2.7 1.3-3.7.9-.9 2-1.4 3.5-1.4 1.4 0 2.5.5 3.4 1.4.9.9 1.3 2.1 1.3 3.5zm-2.2.1c0-.9-.2-1.6-.6-2.3-.4-.8-1.1-1.1-1.9-1.1-.9 0-1.5.4-2 1.1-.4.6-.6 1.4-.6 2.3 0 .9.2 1.6.6 2.3.5.8 1.1 1.1 1.9 1.1.8 0 1.5-.4 1.9-1.2.5-.6.7-1.3.7-2.2z"/><path id="Shape_9_" class="st0" d="M70.7 6.8c-.2 0-.4-.1-.7-.1-.8 0-1.3.3-1.7.8-.4.5-.5 1.1-.5 1.9v5h-2.1V7.8c0-1.1 0-2.1-.1-3h1.9l.1 1.8h.1c.2-.6.6-1.1 1.1-1.5.5-.3 1-.5 1.5-.5h.5v2.2h-.1z"/><path id="Shape_10_" class="st0" d="M80.2 9.2c0 .4 0 .7-.1 1h-6.4c0 .9.3 1.7.9 2.2.5.4 1.2.7 2.1.7.9 0 1.8-.1 2.6-.5l.3 1.5c-.9.4-2 .6-3.2.6-1.5 0-2.7-.4-3.5-1.3-.9-.9-1.3-2.1-1.3-3.5s.4-2.7 1.2-3.6c.8-1 1.9-1.5 3.4-1.5 1.4 0 2.4.5 3.1 1.5.6.7.9 1.8.9 2.9zm-2-.5c0-.6-.1-1.2-.4-1.6-.4-.6-.9-.9-1.7-.9-.7 0-1.3.3-1.7.9-.4.5-.6 1-.6 1.7l4.4-.1z"/></g></g></g><path class="st0" d="M46.8 6l-.2.8c-.4-.2-.8-.3-1.2-.3-.7 0-1.3.2-1.7.6-.5.6-.7 1.2-.7 2s.2 1.4.6 1.8 1 .7 1.7.7c.5 0 .9-.1 1.3-.2l.2.8c-.4.2-.9.3-1.7.3-1 0-1.8-.3-2.3-.9-.6-.6-.9-1.4-.9-2.4s.3-1.9 1-2.5c.6-.6 1.4-.9 2.4-.9.6-.1 1.1 0 1.5.2zM52.6 9.9c0 .7-.2 1.3-.6 1.8-.4.5-1 .7-1.7.7s-1.2-.2-1.7-.7c-.4-.5-.6-1-.6-1.7s.2-1.3.6-1.8 1-.7 1.7-.7 1.2.2 1.7.7c.4.5.6 1 .6 1.7zm-1.1.1c0-.4-.1-.8-.3-1.1-.2-.4-.5-.6-.9-.6s-.7.2-1 .6c-.2.3-.3.7-.3 1.1 0 .4.1.8.3 1.1.2.4.5.6 1 .6.4 0 .7-.2.9-.6.2-.3.3-.7.3-1.1zM58.2 12.3h-1V9.6c0-.8-.3-1.2-1-1.2-.3 0-.6.1-.8.3-.2.2-.3.5-.3.8v2.8h-1V9 7.7h.9v.7c.1-.2.3-.4.5-.6.3-.2.6-.3 1-.3s.8.1 1.1.4c.4.3.5.9.5 1.6v2.8zM62.9 11c0 .4-.2.8-.5 1.1s-.8.4-1.3.4-1-.1-1.4-.3l.2-.8c.4.2.7.3 1.2.3s.8-.2.8-.6c0-.2-.1-.3-.2-.4-.1-.1-.3-.2-.6-.3-.8-.4-1.2-.8-1.2-1.4 0-.4.2-.7.5-1 .3-.3.7-.4 1.2-.4s.9.1 1.2.3l-.2.8c-.3-.2-.6-.3-1-.3-.2 0-.4.1-.5.2-.1.1-.2.2-.2.4s.1.3.2.4c.1.1.3.2.6.3.8.2 1.2.7 1.2 1.3zM65.5 12.3h-1V7.6h1v4.7zm.9-6.6l-1.2 1.4h-.7l.8-1.4h1.1zM71.5 7.6v4c0 1-.2 1.7-.7 2.1-.4.4-1 .6-1.7.6s-1.2-.1-1.6-.4l.2-.8c.4.2.8.4 1.3.4.9 0 1.4-.5 1.4-1.5v-.5c-.3.5-.8.7-1.4.7-.6 0-1-.2-1.4-.6-.4-.4-.6-1-.6-1.6 0-.8.2-1.4.6-1.8.4-.4.9-.6 1.4-.6.6 0 1.1.2 1.4.7v-.6l1.1-.1zm-1 2.7v-.8c0-.3-.1-.6-.3-.8-.2-.2-.5-.3-.8-.3-.4 0-.7.1-.9.4-.2.3-.3.7-.3 1.2s.1.8.3 1.1c.2.3.5.5.9.5.2 0 .4-.1.6-.2.2-.1.3-.3.4-.6 0-.2.1-.3.1-.5zM77.4 12.3h-.9l-.1-.7c-.3.6-.8.8-1.5.8-.5 0-.8-.1-1.1-.4-.3-.4-.5-.9-.5-1.6V7.6h1v2.6c0 .9.3 1.4.9 1.4.5 0 .8-.2 1-.7 0-.1.1-.2.1-.4V7.6h1V11c.1.4.1.9.1 1.3zM83.1 9.8v.5H80c0 .5.2.8.5 1.1.3.2.6.3 1 .3.5 0 .9-.1 1.3-.2l.2.7c-.4.2-1 .3-1.6.3-.7 0-1.3-.2-1.7-.6-.4-.4-.6-1-.6-1.7s.2-1.3.6-1.8c.4-.5 1-.8 1.6-.8.7 0 1.2.3 1.5.8.2.3.3.8.3 1.4zm-1-.3c0-.3-.1-.6-.2-.8-.2-.3-.5-.4-.8-.4-.3 0-.6.1-.8.4-.2.2-.3.5-.3.8h2.1zM85.7 12.3h-1V5.5h1v6.8zM91.9 9.9c0 .7-.2 1.3-.6 1.8-.4.5-1 .7-1.7.7s-1.2-.2-1.7-.7c-.4-.5-.6-1-.6-1.7s.2-1.3.6-1.8 1-.7 1.7-.7 1.2.2 1.7.7c.4.5.6 1 .6 1.7zm-1.1.1c0-.4-.1-.8-.3-1.1-.2-.4-.5-.6-.9-.6s-.7.2-1 .6c-.2.3-.3.7-.3 1.1 0 .4.1.8.3 1.1.2.4.5.6 1 .6.4 0 .7-.2.9-.6.2-.3.3-.7.3-1.1zM100.1 9.8v.5H97c0 .5.2.8.5 1.1.3.2.6.3 1 .3.5 0 .9-.1 1.3-.2l.2.7c-.4.2-1 .3-1.6.3-.7 0-1.3-.2-1.7-.6-.4-.4-.6-1-.6-1.7s.2-1.3.6-1.8c.4-.5 1-.8 1.6-.8.7 0 1.2.3 1.5.8.2.3.3.8.3 1.4zm-1-.3c0-.3-.1-.6-.2-.8-.2-.3-.5-.4-.8-.4-.3 0-.6.1-.8.4-.2.2-.3.5-.3.8h2.1zM105.7 12.3h-1V9.6c0-.8-.3-1.2-1-1.2-.3 0-.6.1-.8.3s-.3.5-.3.8v2.8h-1V9 7.7h.9v.7c.1-.2.3-.4.5-.6.3-.2.6-.3 1-.3s.8.1 1.1.4c.4.3.5.9.5 1.6v2.8zM114.3 9.8v.5h-3.1c0 .5.2.8.5 1.1.3.2.6.3 1 .3.5 0 .9-.1 1.3-.2l.2.7c-.4.2-1 .3-1.6.3-.7 0-1.3-.2-1.7-.6-.4-.4-.6-1-.6-1.7s.2-1.3.6-1.8c.4-.5 1-.8 1.6-.8.7 0 1.2.3 1.5.8.2.3.3.8.3 1.4zm-1-.3c0-.3-.1-.6-.2-.8-.2-.3-.5-.4-.8-.4-.3 0-.6.1-.8.4-.2.2-.3.5-.3.8h2.1zM116.9 12.3h-1V5.5h1v6.8z"/></svg>