<svg version="1.1" id="Ebene_1" xmlns="http://www.w3.org/2000/svg" x="0" y="0" viewBox="0 0 133 38" xml:space="preserve"><style>.st6{opacity:.12;enable-background:new}.st10,.st9{fill:#fff;stroke:#fff;stroke-width:.2}.st9{display:inline}.st10{stroke-miterlimit:10}</style><g id="badge_appstore_de"><g id="badge_googleplay_de"><path id="Shape" d="M133.1 34.4c0 2.1-1.7 3.8-3.8 3.8H3.8c-2.1 0-3.8-1.7-3.8-3.8V3.8C0 1.7 1.7 0 3.8 0h125.5c2.1 0 3.8 1.7 3.8 3.8v30.6z"/><path id="Shape_1_" d="M67.1 20.8c-2.4 0-4.3 1.8-4.3 4.3 0 2.4 1.9 4.3 4.3 4.3s4.3-1.8 4.3-4.3c0-2.6-1.9-4.3-4.3-4.3zm0 6.8c-1.3 0-2.4-1.1-2.4-2.6s1.1-2.6 2.4-2.6c1.3 0 2.4 1 2.4 2.6 0 1.5-1.1 2.6-2.4 2.6zm-9.3-6.8c-2.4 0-4.3 1.8-4.3 4.3 0 2.4 1.9 4.3 4.3 4.3s4.3-1.8 4.3-4.3c0-2.6-1.9-4.3-4.3-4.3zm0 6.8c-1.3 0-2.4-1.1-2.4-2.6s1.1-2.6 2.4-2.6 2.4 1 2.4 2.6c0 1.5-1.1 2.6-2.4 2.6zm-11.1-5.5v1.8H51c-.1 1-.5 1.8-1 2.3-.6.6-1.6 1.3-3.3 1.3-2.7 0-4.7-2.1-4.7-4.8s2.1-4.8 4.7-4.8c1.4 0 2.5.6 3.3 1.3l1.3-1.3c-1.1-1-2.5-1.8-4.5-1.8-3.6 0-6.7 3-6.7 6.6s3.1 6.6 6.7 6.6c2 0 3.4-.6 4.6-1.9 1.2-1.2 1.6-2.9 1.6-4.2 0-.4 0-.8-.1-1.1h-6.2zm45.4 1.4c-.4-1-1.4-2.7-3.6-2.7s-4 1.7-4 4.3c0 2.4 1.8 4.3 4.2 4.3 1.9 0 3.1-1.2 3.5-1.9l-1.4-1c-.5.7-1.1 1.2-2.1 1.2s-1.6-.4-2.1-1.3l5.7-2.4-.2-.5zm-5.8 1.4c0-1.6 1.3-2.5 2.2-2.5.7 0 1.4.4 1.6.9l-3.8 1.6zM81.6 29h1.9V16.5h-1.9V29zm-3-7.3c-.5-.5-1.3-1-2.3-1-2.1 0-4.1 1.9-4.1 4.3s1.9 4.2 4.1 4.2c1 0 1.8-.5 2.2-1h.1v.6c0 1.6-.9 2.5-2.3 2.5-1.1 0-1.9-.8-2.1-1.5l-1.6.7c.5 1.1 1.7 2.5 3.8 2.5 2.2 0 4-1.3 4-4.4V21h-1.8v.7zm-2.2 5.9c-1.3 0-2.4-1.1-2.4-2.6s1.1-2.6 2.4-2.6c1.3 0 2.3 1.1 2.3 2.6s-1 2.6-2.3 2.6zm24.4-11.1h-4.5V29h1.9v-4.7h2.6c2.1 0 4.1-1.5 4.1-3.9s-2-3.9-4.1-3.9zm.1 6h-2.7v-4.3h2.7c1.4 0 2.2 1.2 2.2 2.1-.1 1.1-.9 2.2-2.2 2.2zm11.5-1.8c-1.4 0-2.8.6-3.3 1.9l1.7.7c.4-.7 1-.9 1.7-.9 1 0 1.9.6 2 1.6v.1c-.3-.2-1.1-.5-1.9-.5-1.8 0-3.6 1-3.6 2.8 0 1.7 1.5 2.8 3.1 2.8 1.3 0 1.9-.6 2.4-1.2h.1v1h1.8v-4.8c-.2-2.2-1.9-3.5-4-3.5zm-.2 6.9c-.6 0-1.5-.3-1.5-1.1 0-1 1.1-1.3 2-1.3.8 0 1.2.2 1.7.4-.2 1.2-1.2 2-2.2 2zm10.5-6.6l-2.1 5.4h-.1l-2.2-5.4h-2l3.3 7.6-1.9 4.2h1.9l5.1-11.8h-2zm-16.8 8h1.9V16.5h-1.9V29z" fill="#fff"/><g id="Group" transform="translate(8 6)"><linearGradient id="Shape_17_" gradientUnits="userSpaceOnUse" x1="-536.009" y1="506.274" x2="-537.3" y2="505.602" gradientTransform="matrix(13 0 0 -25 6980.9 12658.5)"><stop offset="0" stop-color="#00a0ff"/><stop offset=".007" stop-color="#00a1ff"/><stop offset=".26" stop-color="#00beff"/><stop offset=".512" stop-color="#00d2ff"/><stop offset=".76" stop-color="#00dfff"/><stop offset="1" stop-color="#00e3ff"/></linearGradient><path id="Shape_2_" d="M1.4.5c-.3.3-.5.8-.5 1.4V24c0 .6.2 1.1.5 1.4l.1.1 12.4-12.4v-.2L1.4.5z" fill="url(#Shape_17_)"/><linearGradient id="Shape_18_" gradientUnits="userSpaceOnUse" x1="-523.47" y1="467.618" x2="-525.854" y2="467.618" gradientTransform="matrix(10.15 0 0 -8.5 5338.05 3987.8)"><stop offset="0" stop-color="#ffe000"/><stop offset=".409" stop-color="#ffbd00"/><stop offset=".775" stop-color="orange"/><stop offset="1" stop-color="#ff9c00"/></linearGradient><path id="Shape_3_" d="M18 17.3l-4.1-4.1V12.9L18 8.8l.1.1 4.9 2.8c1.4.8 1.4 2.1 0 2.9l-5 2.7z" fill="url(#Shape_18_)"/><linearGradient id="Shape_19_" gradientUnits="userSpaceOnUse" x1="-545.826" y1="487.649" x2="-547.188" y2="485.883" gradientTransform="matrix(16.7 0 0 -12.8885 9131.1 6300.374)"><stop offset="0" stop-color="#ff3a44"/><stop offset="1" stop-color="#c31162"/></linearGradient><path id="Shape_4_" d="M18.1 17.2L13.9 13 1.4 25.5c.5.5 1.2.5 2.1.1l14.6-8.4" fill="url(#Shape_19_)"/><linearGradient id="Shape_20_" gradientUnits="userSpaceOnUse" x1="-546.877" y1="488.192" x2="-546.269" y2="487.4" gradientTransform="matrix(16.7 0 0 -12.8287 9131.1 6256.081)"><stop offset="0" stop-color="#32a071"/><stop offset=".069" stop-color="#2da771"/><stop offset=".476" stop-color="#15cf74"/><stop offset=".801" stop-color="#06e775"/><stop offset="1" stop-color="#00f076"/></linearGradient><path id="Shape_5_" d="M18.1 8.8L3.5.5C2.6 0 1.9.1 1.4.6L13.9 13l4.2-4.2z" fill="url(#Shape_20_)"/><g id="Shape_6_"><path d="M17 .1L2.5 8.3c-.8.5-1.5.4-2 0l-.1.1.1.1c.5.4 1.2.5 2 0L17 .1z" opacity=".2" transform="translate(1 17)"/><path class="st6" d="M.4 8.3C.1 8 0 7.5 0 6.9V7c0 .6.2 1.1.4 1.3z" transform="translate(1 17)"/></g><path id="Shape_7_" class="st6" d="M23 14.3l-5 2.8.1.1 4.9-2.9c.7-.3 1-.8 1-1.3 0 .5-.4.9-1 1.3z"/><path id="Shape_8_" d="M3.5.6L23 11.7c.6.4 1 .8 1 1.3 0-.5-.3-1-1-1.4L3.5.5C2.1-.3 1 .4 1 2v.1C1 .5 2.1-.2 3.5.6z" opacity=".25" fill="#fff"/></g><path class="st10" d="M39.2 13V7H41c.9 0 1.7.3 2.2.8.6.6.8 1.3.8 2.2 0 .9-.3 1.6-.8 2.2-.5.5-1.2.8-2.1.8h-1.9zm.8-.7h1.1c.7 0 1.2-.2 1.6-.6.4-.4.6-1 .6-1.7s-.2-1.3-.6-1.7c-.4-.4-1-.6-1.6-.6H40v4.6zM45.2 13V7h.8v6h-.8zM49 13.1c-.4 0-.9-.1-1.3-.4-.4-.3-.7-.7-.8-1.2l.7-.3c.1.3.3.6.5.8.3.2.6.3.9.3.3 0 .6-.1.9-.3.2-.2.4-.4.4-.7 0-.3-.1-.6-.4-.8-.2-.2-.6-.4-1.1-.5-.5-.2-.9-.4-1.2-.6-.3-.3-.4-.6-.4-1s.2-.8.5-1.1c.3-.3.7-.4 1.3-.4.5 0 .9.1 1.2.4.3.3.5.5.6.8l-.7.3c0-.2-.1-.4-.3-.6-.2-.2-.5-.2-.8-.2-.3 0-.5.1-.8.2-.2.2-.3.4-.3.7 0 .2.1.4.3.6.2.2.5.3.9.4.3.1.5.2.7.3.2.1.4.2.6.4.2.1.4.3.5.6s.2.5.2.8c0 .3-.1.6-.2.8-.1.2-.3.4-.5.5-.2 0-.4.1-.7.1-.2.1-.4.1-.7.1zM52.9 13h-.8V7h2c.5 0 .9.2 1.3.5.5.3.6.8.6 1.3s-.2.9-.6 1.3c-.4.3-.8.5-1.3.5h-1.3V13zm0-3.2h1.3c.3 0 .6-.1.8-.3.2-.2.3-.5.3-.7s-.1-.5-.3-.7c-.2-.2-.5-.3-.8-.3h-1.3v2zM61.9 12.2c-.6.6-1.3.9-2.2.9-.9 0-1.6-.3-2.2-.9-.6-.6-.9-1.3-.9-2.2s.3-1.6.9-2.2c.6-.6 1.3-.9 2.2-.9.9 0 1.6.3 2.2.9.6.6.9 1.3.9 2.2 0 .9-.3 1.6-.9 2.2zm-3.8-.5c.4.4 1 .7 1.6.7.6 0 1.2-.2 1.6-.7.4-.4.7-1 .7-1.7s-.2-1.3-.7-1.7c-.4-.4-1-.7-1.6-.7-.6 0-1.2.2-1.6.7a2.413 2.413 0 000 3.4zM63.9 13V7h.9l2.9 4.7V7h.8v6h-.8l-3.1-4.9V13h-.7zM69.9 13V7h.8v6h-.8zM72 13V7h2.2c.5 0 .9.2 1.2.5.3.3.5.7.5 1.2 0 .3-.1.5-.2.8-.1.2-.3.4-.6.5.3.1.5.3.7.5.2.2.3.5.3.9 0 .5-.2.9-.5 1.2-.4.3-.8.5-1.3.5H72zm.8-3.4h1.4c.3 0 .5-.1.7-.3.2-.2.3-.4.3-.6s-.1-.5-.3-.7c-.2-.2-.4-.3-.7-.3h-1.4v1.9zm0 2.7h1.6c.3 0 .5-.1.7-.3.2-.2.3-.4.3-.7 0-.2-.1-.5-.3-.7-.2-.2-.4-.3-.7-.3h-1.5v2zM77.2 13V7h.8v5.3h2.6v.7h-3.4zM85 7.7h-2.7v1.9h2.5v.7h-2.5v1.9H85v.8h-3.5V7H85v.7zM91.7 7.7H89v1.9h2.5v.7H89v1.9h2.7v.8h-3.5V7h3.5v.7zM93 13V7h.9l2.9 4.7V7h.8v6h-.8l-3.1-4.9V13H93z"/></g></g></svg>